<svg width="772" height="777" viewBox="0 0 772 777" fill="none" xmlns="http://www.w3.org/2000/svg">
<path fill-rule="evenodd" clip-rule="evenodd" d="M329.27 333.601C326.77 286.101 330.361 162.405 381.27 93.1008C440.77 12.1008 487.27 2.60083 525.27 0.60083C563.27 -1.39917 730.298 25.1008 766.27 193.101C811.77 405.601 563.77 449.101 442.77 445.601C442.77 500.601 440.77 616.101 384.77 693.601C314.244 791.203 210.004 781.976 158.77 763.101C82.7697 735.101 -67.5874 578.601 34.2697 439.101C107.87 338.301 257.77 328.601 329.27 333.601ZM447.253 321.096C447.118 286.167 446.871 222.274 474.27 165.601C503.47 105.201 559.103 118.767 583.27 133.101C608.936 150.767 659.37 197.001 655.77 240.601C652.17 284.201 595.936 308.768 568.27 315.601C545.603 320.101 488.07 327.601 447.27 327.601C447.27 325.565 447.261 323.393 447.253 321.096ZM326.27 451.601C328.27 475.934 321.749 534.674 307.77 584.601C290.27 647.101 235.77 703.101 153.27 615.101C60.1319 515.754 165.77 468.101 212.77 459.601C257.21 451.564 273.935 451.573 318.316 451.598H318.363C320.904 451.599 323.536 451.601 326.27 451.601Z" fill="url(#paint0_linear_1_31)"/>
<path d="M461 202.5C446.6 249.7 448 292 448 310.5C403.667 342 321.985 376.235 329.5 259.5C337 143 381 87 409.5 58C460.21 6.40034 507 0 526.5 0C546.525 0 693 14.5 748.5 142C792.9 244 763.333 315.5 743 338.5C660 339.833 562.928 323.684 614 294.5C638.5 280.5 658.643 264.767 654.5 228C650.5 192.5 594.5 127.5 547.5 123C500.5 118.5 479 143.5 461 202.5Z" fill="url(#paint1_linear_1_31)"/>
<path d="M329 748C420 694.247 440.167 558.5 442 495.5C405.667 458.5 332.157 407.159 324.5 493C315 599.5 274 680.25 212 657C168 640.5 132 592.5 123.5 573.5C77.6665 571 -3.6 578.6 22 629C47.6 679.4 86.4999 723.724 127.5 748C163.5 769.316 243 798.8 329 748Z" fill="url(#paint2_linear_1_31)"/>
<path d="M561.5 316.499C606 306.765 635.333 280.833 644 270.499C656.5 270.499 770.393 217.584 770.5 220C773 276.5 771 328.017 710.5 373.999C595.797 461.177 503.833 446.666 432.5 445.999L407 326.999C440 328.666 513.5 326.999 561.5 316.499Z" fill="url(#paint3_linear_1_31)"/>
<path d="M328.494 333.5C328.494 318.863 328.494 289.5 329.994 259.5L447.994 284C450 397 443.5 495 439.5 529.5C409.501 502 323.394 504.1 324.994 488.5C326.994 469 328.494 356 328.494 333.5V333.5Z" fill="url(#paint4_linear_1_31)"/>
<defs>
<linearGradient id="paint0_linear_1_31" x1="272.086" y1="290.511" x2="1040.8" y2="257.489" gradientUnits="userSpaceOnUse">
<stop stop-color="#F17287"/>
<stop offset="0.214378" stop-color="#EF9949"/>
<stop offset="0.481758" stop-color="#F8BF34"/>
<stop offset="0.635943" stop-color="#CCC749"/>
<stop offset="0.91" stop-color="#9EC364"/>
</linearGradient>
<linearGradient id="paint1_linear_1_31" x1="374.5" y1="88.5" x2="788.5" y2="281.5" gradientUnits="userSpaceOnUse">
<stop offset="0.192807" stop-color="#06B6DD"/>
<stop offset="0.753305" stop-color="#9AC46E"/>
<stop offset="0.937146" stop-color="#CDC947"/>
</linearGradient>
<linearGradient id="paint2_linear_1_31" x1="424.5" y1="547.5" x2="17.1211" y2="640.629" gradientUnits="userSpaceOnUse">
<stop stop-color="#1EA7DD"/>
<stop offset="0.662829" stop-color="#E468A4"/>
<stop offset="0.89674" stop-color="#F17387"/>
</linearGradient>
<linearGradient id="paint3_linear_1_31" x1="651.5" y1="259" x2="456.5" y2="457.5" gradientUnits="userSpaceOnUse">
<stop offset="0.0959352" stop-color="#AFC55C"/>
<stop offset="0.331733" stop-color="#EDC434"/>
<stop offset="0.66" stop-color="#F8B43A"/>
<stop offset="1" stop-color="#F49B48"/>
</linearGradient>
<linearGradient id="paint4_linear_1_31" x1="435.285" y1="249.02" x2="262" y2="473.5" gradientUnits="userSpaceOnUse">
<stop stop-color="#07B7DE"/>
<stop offset="0.697546" stop-color="#15ABDE"/>
<stop offset="1" stop-color="#5F93CB"/>
</linearGradient>
</defs>
</svg>
