<?xml version="1.0" encoding="UTF-8"?>
<svg version="1.1" xmlns="http://www.w3.org/2000/svg" width="150" height="150">
<path d="M0 0 C49.5 0 99 0 150 0 C150 49.5 150 99 150 150 C100.5 150 51 150 0 150 C0 100.5 0 51 0 0 Z " fill="#010101" transform="translate(0,0)"/>
<path d="M0 0 C7.98085191 5.71068025 14.3235935 13.53525872 16.3125 23.3125 C17.18712591 31.48523394 15.75371378 38.62076556 10.83984375 45.3203125 C3.83233191 52.97390699 -7.31415905 57.79650755 -17.63671875 58.43261719 C-21.99161975 58.55721801 -26.33359216 58.47114442 -30.6875 58.3125 C-30.64109375 59.07691406 -30.5946875 59.84132813 -30.546875 60.62890625 C-30.14618434 72.52083274 -32.19818638 85.65373785 -39.6875 95.3125 C-44.68612642 100.5569605 -49.24987252 104.8123218 -56.66796875 105.6484375 C-68.66464283 105.7945602 -75.7996135 102.91810831 -84.48828125 94.625 C-91.90250786 86.82886829 -95.0998349 79.457442 -94.97265625 68.68359375 C-94.15227216 61.86204381 -90.35960113 55.51205192 -85.23046875 51.04296875 C-74.47830552 42.70815369 -60.94263556 41.0655099 -47.6875 41.3125 C-47.71070313 40.65765625 -47.73390625 40.0028125 -47.7578125 39.328125 C-48.02817696 25.65540809 -45.73604871 12.72573778 -36.73046875 1.9765625 C-25.86337699 -8.18320376 -12.24965441 -7.64561763 0 0 Z " fill="#FCFCFC" transform="translate(114.6875,25.6875)"/>
<path d="M0 0 C0.63667061 9.56420741 0.10611963 17.65552556 -5 26 C-7.3427813 28.10073957 -8.59324991 28.91486626 -11.6875 29.5625 C-17.8760544 28.5116134 -22.4078798 24.747449 -26.5625 20.1875 C-28.45166706 15.99847738 -28.9502818 12.51815802 -28 8 C-21.69147217 -0.04881137 -9.34250928 -0.58696393 0 0 Z " fill="#090909" transform="translate(66,85)"/>
<path d="M0 0 C5.98435331 1.13436484 9.53576688 5.80415076 13.01953125 10.3828125 C14.6452611 13.63427221 14.69991056 16.8798695 14.01953125 20.3828125 C9.77272271 25.41192788 4.41811925 27.2630596 -1.98046875 28.3828125 C-5.99643388 28.60065967 -9.96406873 28.56914034 -13.98046875 28.3828125 C-14.51842324 18.9835521 -14.38697273 9.6688039 -8.08203125 2.10546875 C-5.44570823 -0.05553209 -3.36152345 -0.18709778 0 0 Z " fill="#070707" transform="translate(98.98046875,37.6171875)"/>
</svg>
