<?xml version="1.0" standalone="no"?>
<!DOCTYPE svg PUBLIC "-//W3C//DTD SVG 20010904//EN"
 "http://www.w3.org/TR/2001/REC-SVG-20010904/DTD/svg10.dtd">
<svg version="1.0" xmlns="http://www.w3.org/2000/svg"
 width="192.000000pt" height="192.000000pt" viewBox="0 0 192.000000 192.000000"
 preserveAspectRatio="xMidYMid meet">

<g transform="translate(0.000000,192.000000) scale(0.100000,-0.100000)"
fill="#000000" stroke="none">
<path d="M0 960 l0 -960 960 0 960 0 0 960 0 960 -960 0 -960 0 0 -960z m1344
675 c75 -23 124 -56 199 -133 93 -97 121 -160 121 -272 0 -65 -5 -96 -20 -131
-64 -140 -214 -220 -454 -242 l-125 -12 -7 -106 c-7 -121 -33 -225 -58 -239
-12 -7 -28 -5 -49 6 -17 8 -45 17 -62 19 -39 5 -48 13 -29 25 12 8 10 10 -7
10 -27 0 -27 -5 -8 93 8 43 15 104 15 134 l0 56 -98 -6 c-116 -7 -198 -34
-251 -83 -32 -29 -36 -38 -35 -82 0 -46 25 -103 61 -140 35 -36 -17 -199 -63
-201 -6 -1 -41 29 -77 65 -152 151 -171 351 -47 487 95 104 240 156 475 170
l40 2 6 100 c7 125 22 190 64 282 79 172 239 250 409 198z"/>
<path d="M1193 1436 c-60 -27 -106 -141 -118 -295 l-7 -84 89 6 c166 11 285
68 299 143 22 120 -156 276 -263 230z"/>
<path d="M938 523 c7 -3 16 -2 19 1 4 3 -2 6 -13 5 -11 0 -14 -3 -6 -6z"/>
</g>
</svg>
